<svg viewBox="-8 -8 1464.3203125 436.4735107421875" style="max-width: 1464.3203125px;" xmlns="http://www.w3.org/2000/svg" width="100%" id="mermaid-svg" xmlns:xlink="http://www.w3.org/1999/xlink"><style>#mermaid-svg{font-family:"trebuchet ms",verdana,arial,sans-serif;font-size:16px;fill:#333;}#mermaid-svg .error-icon{fill:#552222;}#mermaid-svg .error-text{fill:#552222;stroke:#552222;}#mermaid-svg .edge-thickness-normal{stroke-width:2px;}#mermaid-svg .edge-thickness-thick{stroke-width:3.5px;}#mermaid-svg .edge-pattern-solid{stroke-dasharray:0;}#mermaid-svg .edge-pattern-dashed{stroke-dasharray:3;}#mermaid-svg .edge-pattern-dotted{stroke-dasharray:2;}#mermaid-svg .marker{fill:#333333;stroke:#333333;}#mermaid-svg .marker.cross{stroke:#333333;}#mermaid-svg svg{font-family:"trebuchet ms",verdana,arial,sans-serif;font-size:16px;}#mermaid-svg .label{font-family:"trebuchet ms",verdana,arial,sans-serif;color:#333;}#mermaid-svg .cluster-label text{fill:#333;}#mermaid-svg .cluster-label span,#mermaid-svg p{color:#333;}#mermaid-svg .label text,#mermaid-svg span,#mermaid-svg p{fill:#333;color:#333;}#mermaid-svg .node rect,#mermaid-svg .node circle,#mermaid-svg .node ellipse,#mermaid-svg .node polygon,#mermaid-svg .node path{fill:#ECECFF;stroke:#9370DB;stroke-width:1px;}#mermaid-svg .flowchart-label text{text-anchor:middle;}#mermaid-svg .node .katex path{fill:#000;stroke:#000;stroke-width:1px;}#mermaid-svg .node .label{text-align:center;}#mermaid-svg .node.clickable{cursor:pointer;}#mermaid-svg .arrowheadPath{fill:#333333;}#mermaid-svg .edgePath .path{stroke:#333333;stroke-width:2.0px;}#mermaid-svg .flowchart-link{stroke:#333333;fill:none;}#mermaid-svg .edgeLabel{background-color:#e8e8e8;text-align:center;}#mermaid-svg .edgeLabel rect{opacity:0.5;background-color:#e8e8e8;fill:#e8e8e8;}#mermaid-svg .labelBkg{background-color:rgba(232, 232, 232, 0.5);}#mermaid-svg .cluster rect{fill:#ffffde;stroke:#aaaa33;stroke-width:1px;}#mermaid-svg .cluster text{fill:#333;}#mermaid-svg .cluster span,#mermaid-svg p{color:#333;}#mermaid-svg div.mermaidTooltip{position:absolute;text-align:center;max-width:200px;padding:2px;font-family:"trebuchet ms",verdana,arial,sans-serif;font-size:12px;background:hsl(80, 100%, 96.2745098039%);border:1px solid #aaaa33;border-radius:2px;pointer-events:none;z-index:100;}#mermaid-svg .flowchartTitleText{text-anchor:middle;font-size:18px;fill:#333;}#mermaid-svg :root{--mermaid-font-family:"trebuchet ms",verdana,arial,sans-serif;}</style><g><marker orient="auto" markerHeight="12" markerWidth="12" markerUnits="userSpaceOnUse" refY="5" refX="6" viewBox="0 0 10 10" class="marker flowchart" id="mermaid-svg_flowchart-pointEnd"><path style="stroke-width: 1; stroke-dasharray: 1, 0;" class="arrowMarkerPath" d="M 0 0 L 10 5 L 0 10 z"></path></marker><marker orient="auto" markerHeight="12" markerWidth="12" markerUnits="userSpaceOnUse" refY="5" refX="4.5" viewBox="0 0 10 10" class="marker flowchart" id="mermaid-svg_flowchart-pointStart"><path style="stroke-width: 1; stroke-dasharray: 1, 0;" class="arrowMarkerPath" d="M 0 5 L 10 10 L 10 0 z"></path></marker><marker orient="auto" markerHeight="11" markerWidth="11" markerUnits="userSpaceOnUse" refY="5" refX="11" viewBox="0 0 10 10" class="marker flowchart" id="mermaid-svg_flowchart-circleEnd"><circle style="stroke-width: 1; stroke-dasharray: 1, 0;" class="arrowMarkerPath" r="5" cy="5" cx="5"></circle></marker><marker orient="auto" markerHeight="11" markerWidth="11" markerUnits="userSpaceOnUse" refY="5" refX="-1" viewBox="0 0 10 10" class="marker flowchart" id="mermaid-svg_flowchart-circleStart"><circle style="stroke-width: 1; stroke-dasharray: 1, 0;" class="arrowMarkerPath" r="5" cy="5" cx="5"></circle></marker><marker orient="auto" markerHeight="11" markerWidth="11" markerUnits="userSpaceOnUse" refY="5.2" refX="12" viewBox="0 0 11 11" class="marker cross flowchart" id="mermaid-svg_flowchart-crossEnd"><path style="stroke-width: 2; stroke-dasharray: 1, 0;" class="arrowMarkerPath" d="M 1,1 l 9,9 M 10,1 l -9,9"></path></marker><marker orient="auto" markerHeight="11" markerWidth="11" markerUnits="userSpaceOnUse" refY="5.2" refX="-1" viewBox="0 0 11 11" class="marker cross flowchart" id="mermaid-svg_flowchart-crossStart"><path style="stroke-width: 2; stroke-dasharray: 1, 0;" class="arrowMarkerPath" d="M 1,1 l 9,9 M 10,1 l -9,9"></path></marker><g class="root"><g class="clusters"><g id="DockerBridgeNetwork" class="cluster default flowchart-label"><rect height="318.28600311279297" width="1448.3203125" y="102.1875" x="0" ry="0" rx="0"></rect><g transform="translate(724.16015625, 102.1875)" class="cluster-label"><text fill="#333333"><tspan class="row" x="0" dy="1em" xml:space="preserve">Docker Bridge Network: vibo-network</tspan></text></g></g></g><g class="edgePaths"><path marker-end="url(#mermaid-svg_flowchart-pointEnd)" style="fill:none;" class="edge-thickness-normal edge-pattern-solid flowchart-link LS-Client LE-Nginx" id="L-Client-Nginx-0" d="M781.242,26.435L838.512,33.344C895.781,40.254,1010.32,54.072,1067.59,66.698C1124.859,79.323,1124.859,90.755,1124.859,99.755C1124.859,108.754,1124.859,115.321,1124.859,118.604L1124.859,121.888"></path><path marker-end="url(#mermaid-svg_flowchart-pointEnd)" style="fill:none;" class="edge-thickness-normal edge-pattern-solid flowchart-link LS-Client LE-Reverb" id="L-Client-Reverb-0" d="M621.461,24.131L542.017,31.424C462.573,38.718,303.685,53.304,224.241,66.314C144.797,79.323,144.797,90.755,144.797,103.438C144.797,116.12,144.797,130.052,144.797,145.534C144.797,161.016,144.797,178.047,144.797,191.395C144.797,204.744,144.797,214.409,144.797,219.242L144.797,224.075"></path><path marker-end="url(#mermaid-svg_flowchart-pointEnd)" style="fill:none;" class="edge-thickness-normal edge-pattern-solid flowchart-link LS-Nginx LE-App" id="L-Nginx-App-0" d="M1124.859,160.781L1124.859,166.497C1124.859,172.214,1124.859,183.646,1124.859,194.195C1124.859,204.744,1124.859,214.409,1124.859,219.242L1124.859,224.075"></path><path marker-end="url(#mermaid-svg_flowchart-pointEnd)" style="fill:none;" class="edge-thickness-normal edge-pattern-solid flowchart-link LS-App LE-Redis" id="L-App-Redis-0" d="M1054.092,262.969L1030.009,268.685C1005.926,274.401,957.76,285.833,876.531,300.894C795.302,315.954,681.01,334.643,623.865,343.988L566.719,353.332"></path><path marker-end="url(#mermaid-svg_flowchart-pointEnd)" style="fill:none;" class="edge-thickness-normal edge-pattern-solid flowchart-link LS-App LE-DB" id="L-App-DB-0" d="M1195.627,262.969L1219.71,268.685C1243.793,274.401,1291.959,285.833,1301.727,298.678C1311.495,311.523,1282.866,325.78,1268.551,332.909L1254.236,340.037"></path><path marker-end="url(#mermaid-svg_flowchart-pointEnd)" style="fill:none;" class="edge-thickness-normal edge-pattern-solid flowchart-link LS-Worker LE-Redis" id="L-Worker-Redis-0" d="M712.656,262.969L712.656,268.685C712.656,274.401,712.656,285.833,687.592,299.524C662.527,313.215,612.398,329.165,587.333,337.139L562.269,345.114"></path><path marker-end="url(#mermaid-svg_flowchart-pointEnd)" style="fill:none;" class="edge-thickness-normal edge-pattern-solid flowchart-link LS-Worker LE-DB" id="L-Worker-DB-0" d="M823.469,257.11L891.27,263.803C959.07,270.495,1094.672,283.88,1160.761,295.514C1226.851,307.148,1223.428,317.03,1221.716,321.971L1220.005,326.912"></path><path marker-end="url(#mermaid-svg_flowchart-pointEnd)" style="fill:none;" class="edge-thickness-normal edge-pattern-solid flowchart-link LS-Worker LE-Redis" id="L-Worker-Redis-1" d="M669.732,262.969L655.124,268.685C640.516,274.401,611.301,285.833,587.704,299.219C564.106,312.604,546.127,327.943,537.137,335.612L528.147,343.281"></path><path marker-end="url(#mermaid-svg_flowchart-pointEnd)" style="fill:none;" class="edge-thickness-normal edge-pattern-solid flowchart-link LS-Scheduler LE-DB" id="L-Scheduler-DB-0" d="M551.844,255.952L638.878,262.838C725.911,269.723,899.979,283.495,1001.328,297.509C1102.676,311.523,1131.306,325.78,1145.621,332.909L1159.935,340.037"></path><path marker-end="url(#mermaid-svg_flowchart-pointEnd)" style="fill:none;" class="edge-thickness-normal edge-pattern-solid flowchart-link LS-Scheduler LE-Redis" id="L-Scheduler-Redis-0" d="M428.219,262.969L428.219,268.685C428.219,274.401,428.219,285.833,437.033,299.213C445.848,312.592,463.476,327.918,472.291,335.581L481.105,343.244"></path><path marker-end="url(#mermaid-svg_flowchart-pointEnd)" style="fill:none;" class="edge-thickness-normal edge-pattern-solid flowchart-link LS-Reverb LE-Redis" id="L-Reverb-Redis-0" d="M144.797,262.969L144.797,268.685C144.797,274.401,144.797,285.833,194.356,300.679C243.915,315.526,343.033,333.786,392.592,342.915L442.151,352.045"></path></g><g class="edgeLabels"><g transform="translate(1124.859375, 67.890625)" class="edgeLabel"><g transform="translate(-51.3515625, -9.296875)" class="label"><rect height="18.59375" width="102.703125" ry="0" rx="0"></rect><text fill="#000000"><tspan class="row" x="0" dy="1em" xml:space="preserve">Puerto 80/443</tspan></text></g></g><g transform="translate(144.796875, 143.984375)" class="edgeLabel"><g transform="translate(-42.9609375, -9.296875)" class="label"><rect height="18.59375" width="85.921875" ry="0" rx="0"></rect><text fill="#000000"><tspan class="row" x="0" dy="1em" xml:space="preserve">Puerto 8080</tspan></text></g></g><g transform="translate(1124.859375, 195.078125)" class="edgeLabel"><g transform="translate(-76.1328125, -9.296875)" class="label"><rect height="18.59375" width="152.265625" ry="0" rx="0"></rect><text fill="#000000"><tspan class="row" x="0" dy="1em" xml:space="preserve">PHP-FPM socket/port</tspan></text></g></g><g transform="translate(909.59375, 297.265625)" class="edgeLabel"><g transform="translate(-55.03125, -9.296875)" class="label"><rect height="18.59375" width="110.0625" ry="0" rx="0"></rect><text fill="#000000"><tspan class="row" x="0" dy="1em" xml:space="preserve">Cache &amp; Queue</tspan></text></g></g><g transform="translate(1340.125, 297.265625)" class="edgeLabel"><g transform="translate(-43.046875, -9.296875)" class="label"><rect height="18.59375" width="86.09375" ry="0" rx="0"></rect><text fill="#000000"><tspan class="row" x="0" dy="1em" xml:space="preserve">Persistencia</tspan></text></g></g><g transform="translate(712.65625, 297.265625)" class="edgeLabel"><g transform="translate(-39.6875, -9.296875)" class="label"><rect height="18.59375" width="79.375" ry="0" rx="0"></rect><text fill="#000000"><tspan class="row" x="0" dy="1em" xml:space="preserve">Listen Jobs</tspan></text></g></g><g transform="translate(1230.2734375, 297.265625)" class="edgeLabel"><g transform="translate(-46.8046875, -9.296875)" class="label"><rect height="18.59375" width="93.609375" ry="0" rx="0"></rect><text fill="#000000"><tspan class="row" x="0" dy="1em" xml:space="preserve">Leer/Escribir</tspan></text></g></g><g transform="translate(582.0859375, 297.265625)" class="edgeLabel"><g transform="translate(-59.2578125, -9.296875)" class="label"><rect height="18.59375" width="118.515625" ry="0" rx="0"></rect><text fill="#000000"><tspan class="row" x="0" dy="1em" xml:space="preserve">Publicar Eventos</tspan></text></g></g><g transform="translate(1074.046875, 297.265625)" class="edgeLabel"><g transform="translate(-89.421875, -9.296875)" class="label"><rect height="18.59375" width="178.84375" ry="0" rx="0"></rect><text fill="#000000"><tspan class="row" x="0" dy="1em" xml:space="preserve">Verificaciones Periódicas</tspan></text></g></g><g transform="translate(428.21875, 297.265625)" class="edgeLabel"><g transform="translate(-62.984375, -9.296875)" class="label"><rect height="18.59375" width="125.984375" ry="0" rx="0"></rect><text fill="#000000"><tspan class="row" x="0" dy="1em" xml:space="preserve">Despachar Tareas</tspan></text></g></g><g transform="translate(144.796875, 297.265625)" class="edgeLabel"><g transform="translate(-54.2578125, -9.296875)" class="label"><rect height="18.59375" width="108.515625" ry="0" rx="0"></rect><text fill="#000000"><tspan class="row" x="0" dy="1em" xml:space="preserve">Pub/Sub Driver</tspan></text></g></g></g><g class="nodes"><g transform="translate(1124.859375, 246.171875)" id="flowchart-App-5" class="node default default flowchart-label"><rect height="33.59375" width="236.6875" y="-16.796875" x="-118.34375" ry="0" rx="0" class="basic label-container"></rect><g transform="translate(0, -9.296875)" class="label"><rect></rect><text fill="#000000"><tspan class="row" x="0" dy="1em" xml:space="preserve">php:8.3-fpm - Laravel Backend</tspan></text></g></g><g transform="translate(1124.859375, 143.984375)" id="flowchart-Nginx-1" class="node default default flowchart-label"><rect height="33.59375" width="103.0625" y="-16.796875" x="-51.53125" ry="0" rx="0" class="basic label-container"></rect><g transform="translate(0, -9.296875)" class="label"><rect></rect><text fill="#000000"><tspan class="row" x="0" dy="1em" xml:space="preserve">nginx:alpine</tspan></text></g></g><g transform="translate(504.42578125, 363.5180015563965)" id="flowchart-Redis-7" class="node default default flowchart-label"><rect height="33.59375" width="114.125" y="-16.796875" x="-57.0625" ry="0" rx="0" class="basic label-container"></rect><g transform="translate(0, -9.296875)" class="label"><rect></rect><text fill="#000000"><tspan class="row" x="0" dy="1em" xml:space="preserve">redis:7-alpine</tspan></text></g></g><g transform="translate(1207.0859375, 363.5180015563965)" id="flowchart-DB-9" class="node default default flowchart-label"><path transform="translate(-42.40625,-31.955498771224306)" d="M 0,10.105749180816204 a 42.40625,10.105749180816204 0,0,0 84.8125 0 a 42.40625,10.105749180816204 0,0,0 -84.8125 0 l 0,43.699499180816204 a 42.40625,10.105749180816204 0,0,0 84.8125 0 l 0,-43.699499180816204"></path><g transform="translate(0, -9.296875)" class="label"><rect></rect><text fill="#000000"><tspan class="row" x="0" dy="1em" xml:space="preserve">mysql:8.0</tspan></text></g></g><g transform="translate(712.65625, 246.171875)" id="flowchart-Worker-10" class="node default default flowchart-label"><rect height="33.59375" width="221.625" y="-16.796875" x="-110.8125" ry="0" rx="0" class="basic label-container"></rect><g transform="translate(0, -9.296875)" class="label"><rect></rect><text fill="#000000"><tspan class="row" x="0" dy="1em" xml:space="preserve">php:8.3-fpm - Queue Worker</tspan></text></g></g><g transform="translate(428.21875, 246.171875)" id="flowchart-Scheduler-16" class="node default default flowchart-label"><rect height="33.59375" width="247.25" y="-16.796875" x="-123.625" ry="0" rx="0" class="basic label-container"></rect><g transform="translate(0, -9.296875)" class="label"><rect></rect><text fill="#000000"><tspan class="row" x="0" dy="1em" xml:space="preserve">php:8.3-fpm - Laravel Scheduler</tspan></text></g></g><g transform="translate(144.796875, 246.171875)" id="flowchart-Reverb-3" class="node default default flowchart-label"><rect height="33.59375" width="219.59375" y="-16.796875" x="-109.796875" ry="0" rx="0" class="basic label-container"></rect><g transform="translate(0, -9.296875)" class="label"><rect></rect><text fill="#000000"><tspan class="row" x="0" dy="1em" xml:space="preserve">php:8.3-fpm - Reverb Server</tspan></text></g></g><g transform="translate(701.3515625, 16.796875)" id="flowchart-Client-0" class="node default default flowchart-label"><rect height="33.59375" width="159.78125" y="-16.796875" x="-79.890625" ry="0" rx="0" class="basic label-container"></rect><g transform="translate(0, -9.296875)" class="label"><rect></rect><text fill="#000000"><tspan class="row" x="0" dy="1em" xml:space="preserve">Cliente / Navegador</tspan></text></g></g></g></g></g></svg>